<svg width="65" height="56" viewBox="0 0 65 56" fill="none" xmlns="http://www.w3.org/2000/svg">
<circle cx="27.1781" cy="28.1781" r="26.7905" fill="#8A88DC" stroke="url(#paint0_linear_502_927)" stroke-width="0.775274"/>
<circle cx="27.1781" cy="27.1781" r="27.1781" fill="#A19FFF"/>
<circle cx="27.1781" cy="27.1781" r="27.1781" fill="url(#paint1_linear_502_927)"/>
<circle cx="27.1784" cy="27.1784" r="21.1284" fill="url(#paint2_linear_502_927)" stroke="url(#paint3_linear_502_927)" stroke-width="0.775274"/>
<path d="M42.6446 27.1786C42.6446 18.6368 35.7202 11.7123 27.1784 11.7123C18.6366 11.7123 11.7121 18.6368 11.7121 27.1786C11.7121 35.7203 18.6366 42.6448 27.1784 42.6448C35.7202 42.6448 42.6446 35.7203 42.6446 27.1786Z" fill="url(#paint4_linear_502_927)" stroke="url(#paint5_linear_502_927)" stroke-width="0.775274"/>
<circle cx="27.1779" cy="27.1781" r="9.80416" fill="url(#paint6_linear_502_927)" stroke="url(#paint7_linear_502_927)" stroke-width="0.775274"/>
<circle cx="27.1779" cy="27.1784" r="4.14205" fill="#AEACFF" stroke="url(#paint8_linear_502_927)" stroke-width="0.775274"/>
<path d="M53.0912 6.28523L52.0002 11.9995L58.9093 8.07095L60.0003 1.99951L53.0912 6.28523Z" fill="url(#paint9_linear_502_927)"/>
<path d="M57.778 14.9998L52.0002 13.2351L59.5836 8.99976L65.0003 10.7645L57.778 14.9998Z" fill="#FF5C00"/>
<path d="M27.4612 26.8946L60.5845 7.92651" stroke="url(#paint10_linear_502_927)" stroke-width="3.87637" stroke-linecap="round"/>
<path d="M26.7578 26.1552L59.8812 7.18715C60.2656 6.96702 60.7098 6.94708 61.0934 7.09456" stroke="url(#paint11_linear_502_927)" stroke-width="1.36923" stroke-linecap="round"/>
<defs>
<linearGradient id="paint0_linear_502_927" x1="27.1781" y1="64.6988" x2="27.1781" y2="33.8402" gradientUnits="userSpaceOnUse">
<stop stop-color="#9B99E3"/>
<stop offset="1" stop-color="#738BB0" stop-opacity="0"/>
</linearGradient>
<linearGradient id="paint1_linear_502_927" x1="-2" y1="54.0001" x2="51.5001" y2="3" gradientUnits="userSpaceOnUse">
<stop stop-color="#D0CFFF"/>
<stop offset="1" stop-color="#AEACFF" stop-opacity="0"/>
</linearGradient>
<linearGradient id="paint2_linear_502_927" x1="49.0003" y1="-6.99978" x2="6.00024" y2="62.0003" gradientUnits="userSpaceOnUse">
<stop stop-color="#EEEEFF"/>
<stop offset="1" stop-color="#FAFAFF"/>
</linearGradient>
<linearGradient id="paint3_linear_502_927" x1="27.1784" y1="5.66235" x2="27.1784" y2="24.3473" gradientUnits="userSpaceOnUse">
<stop stop-color="white"/>
<stop offset="1" stop-color="white" stop-opacity="0"/>
</linearGradient>
<linearGradient id="paint4_linear_502_927" x1="28.5003" y1="32.5007" x2="11.0002" y2="59.0008" gradientUnits="userSpaceOnUse">
<stop stop-color="#AEACFF"/>
<stop offset="1" stop-color="#B1AFFF" stop-opacity="0"/>
</linearGradient>
<linearGradient id="paint5_linear_502_927" x1="28.3108" y1="34.2562" x2="28.3108" y2="23.2151" gradientUnits="userSpaceOnUse">
<stop stop-color="#9B99E3"/>
<stop offset="1" stop-color="#9B99E3" stop-opacity="0"/>
</linearGradient>
<linearGradient id="paint6_linear_502_927" x1="36.9998" y1="18.5005" x2="18.4998" y2="34.5005" gradientUnits="userSpaceOnUse">
<stop stop-color="#EEEEFF"/>
<stop offset="1" stop-color="#FCFCFF"/>
</linearGradient>
<linearGradient id="paint7_linear_502_927" x1="27.1779" y1="16.9863" x2="27.1779" y2="24.064" gradientUnits="userSpaceOnUse">
<stop stop-color="white"/>
<stop offset="1" stop-color="#FDFEFE" stop-opacity="0"/>
</linearGradient>
<linearGradient id="paint8_linear_502_927" x1="27.1779" y1="28.877" x2="27.1779" y2="31.7081" gradientUnits="userSpaceOnUse">
<stop stop-color="#9B99E3" stop-opacity="0"/>
<stop offset="1" stop-color="#9B99E3"/>
</linearGradient>
<linearGradient id="paint9_linear_502_927" x1="56.1742" y1="9.99953" x2="53.1128" y2="3.91478" gradientUnits="userSpaceOnUse">
<stop stop-color="#FF5C00"/>
<stop offset="1" stop-color="#EE6C16"/>
</linearGradient>
<linearGradient id="paint10_linear_502_927" x1="41.0502" y1="17.5521" x2="42.4658" y2="20.1001" gradientUnits="userSpaceOnUse">
<stop offset="0.421875" stop-color="white"/>
<stop offset="1" stop-color="#A4B3CA"/>
</linearGradient>
<linearGradient id="paint11_linear_502_927" x1="47" y1="4.99975" x2="51.5" y2="14.9998" gradientUnits="userSpaceOnUse">
<stop stop-color="#C1CBDB"/>
<stop offset="1" stop-color="#F6F8FA" stop-opacity="0"/>
</linearGradient>
</defs>
</svg>
