<?xml version="1.0"?>
<svg width="54" height="51" xmlns="http://www.w3.org/2000/svg" xmlns:svg="http://www.w3.org/2000/svg">
 <defs>
  <linearGradient id="paint0_linear_84_219" x1="0.68" x2="0.14" y1="0.31" y2="1.18">
   <stop stop-color="#FFB800"/>
   <stop offset="1" stop-color="#FED261"/>
  </linearGradient>
 </defs>
 <g class="layer">
  <title>Layer 1</title>
  <path d="m53.41,19.36c-0.2,-0.63 -0.74,-1.09 -1.39,-1.18l-16.39,-2.38l-7.33,-14.83c-0.29,-0.6 -0.89,-0.97 -1.55,-0.97c-0.66,0 -1.26,0.37 -1.55,0.97l-7.33,14.83l-16.39,2.37c-0.65,0.1 -1.19,0.56 -1.39,1.19c-0.21,0.62 -0.04,1.3 0.43,1.77l11.86,11.54l-2.8,16.31c-0.11,0.65 0.15,1.3 0.69,1.69c0.53,0.38 1.24,0.44 1.82,0.13l14.66,-7.69l14.66,7.69c0.25,0.14 0.53,0.2 0.8,0.2c0.36,0 0.72,-0.11 1.02,-0.33c0.54,-0.38 0.8,-1.04 0.69,-1.69l-2.79,-16.31l11.85,-11.54c0.47,-0.46 0.64,-1.15 0.44,-1.77l-0.01,0z" fill="url(#paint0_linear_84_219)" id="svg_1"/>
 </g>
 <g class="layer" display="inline">
  <title>Layer_inner</title>
  <path d="m26.92,42.22c0,0 -0.14,-39.72 -0.14,-39.72c0,0 7.92,14.86 7.92,14.86c0,0 15.97,2.36 15.97,2.36c0,0 -11.11,12.08 -11.11,12.08c0,0 2.22,16.11 2.22,16.11c0,0 -14.86,-5.69 -14.86,-5.69z" fill="#ffebdf" id="svg_10"/>
 </g>
</svg>