<svg width="105" height="106" viewBox="0 0 105 106" fill="none" xmlns="http://www.w3.org/2000/svg">
<rect x="1.63477" y="2.98047" width="94.9112" height="92.8918" rx="46.4459" fill="#B3B3E9"/>
<path d="M58.5488 42.8079L62.7818 19.4991C63.1291 17.5867 62.7081 15.7127 61.7387 14.1941L59.7369 10.7696L59.4424 10.2658C58.3726 8.59001 56.6348 7.34725 54.5243 6.96398L31.2155 2.73101C27.1927 2.00044 23.3393 4.66936 22.6087 8.6922L18.3757 32.001C18.0779 33.6411 18.3451 35.253 19.0387 36.6367L21.3279 40.5507L21.8282 41.4062C22.9053 42.9949 24.5956 44.1661 26.6332 44.5361L49.942 48.7691C53.9649 49.4997 57.8182 46.8307 58.5488 42.8079Z" fill="#7573CE"/>
<rect x="23.9315" y="1.4082" width="38.4963" height="38.4963" rx="4.76916" transform="rotate(10.293 23.9315 1.4082)" fill="#FBFCFF"/>
<rect x="24.0595" y="1.59302" width="38.1784" height="38.1784" rx="4.61018" transform="rotate(10.293 24.0595 1.59302)" fill="#FBFCFF" stroke="url(#paint0_linear_503_1341)" stroke-width="0.317944"/>
<path d="M40.4219 19.499L40.4046 19.387L40.2932 19.3668L40.1828 19.3468L40.0715 19.3265L40.0159 19.4252L36.8348 25.0749L36.7253 25.2694L36.9449 25.3093L41.2242 26.0865L41.4438 26.1263L41.4098 25.9058L40.4219 19.499ZM41.7036 27.8117L41.6864 27.6998L41.5749 27.6796L36.0554 26.6772L35.944 26.657L35.8885 26.7556L33.9713 30.1606L32.0428 29.8103L39.5224 16.8994L41.765 17.3067L44.2275 32.0231L42.299 31.6729L41.7036 27.8117Z" fill="#6865DB" stroke="url(#paint1_linear_503_1341)" stroke-width="0.317944"/>
<path d="M53.3439 77.8693L49.7153 54.4588C49.4176 52.5381 48.4065 50.905 46.9935 49.7874L43.9812 47.2066L43.538 46.8269C41.9787 45.5936 39.9298 44.988 37.8101 45.3165L14.3996 48.9452C10.3592 49.5714 7.59153 53.3545 8.21779 57.3949L11.8464 80.8054C12.1017 82.4526 12.8818 83.8883 13.99 84.9688L17.4341 87.9181L18.1869 88.5627C19.7246 89.7113 21.7051 90.2649 23.7516 89.9477L47.1621 86.319C51.2025 85.6928 53.9702 81.9097 53.3439 77.8693Z" fill="#7573CE"/>
<rect x="7.08385" y="50.0791" width="38.4963" height="38.4963" rx="4.76916" transform="rotate(-8.81071 7.08385 50.0791)" fill="#FBFCFF"/>
<rect x="7.26529" y="50.2118" width="38.1784" height="38.1784" rx="4.61018" transform="rotate(-8.81071 7.26529 50.2118)" fill="#FBFCFF" stroke="url(#paint2_linear_503_1341)" stroke-width="0.317944"/>
<path d="M30.3318 73.2829L25.0505 74.1015L22.9001 60.2275L27.9388 59.4465C28.9296 59.2929 29.7624 59.3315 30.4438 59.5518L30.4447 59.5521C31.1303 59.7695 31.6658 60.1225 32.059 60.6079L32.0594 60.6083C32.4545 61.0926 32.7056 61.6707 32.8105 62.3472C32.8992 62.9195 32.8672 63.4074 32.724 63.8167C32.5775 64.2287 32.3508 64.5748 32.0437 64.8579C31.7344 65.1413 31.3798 65.3687 30.9789 65.54L30.8653 65.5885L30.8842 65.7105L30.9057 65.849L30.9289 65.9986L31.0795 65.9828C31.5238 65.9361 31.9796 66.0114 32.4493 66.2142L32.4493 66.2142L32.4511 66.2149C32.9194 66.4105 33.334 66.7299 33.6943 67.1785C34.0482 67.619 34.2839 68.1917 34.3945 68.9051C34.5029 69.6044 34.435 70.2531 34.1941 70.8548L34.194 70.8551C33.9593 71.4456 33.5311 71.9577 32.8983 72.3898C32.2689 72.8144 31.4165 73.1147 30.3318 73.2829ZM26.6168 72.1396L26.6412 72.2967L26.7983 72.2723L29.8881 71.7934C30.9264 71.6325 31.6781 71.3114 32.0974 70.7998C32.5079 70.2989 32.665 69.7225 32.5657 69.0821C32.4919 68.6062 32.3032 68.1856 31.9998 67.8238C31.6955 67.4608 31.3011 67.1975 30.8217 67.0324C30.3424 66.865 29.804 66.8309 29.2112 66.9227L26.0451 67.4135L25.888 67.4378L25.9124 67.5949L26.6168 72.1396ZM25.6536 65.9253L25.678 66.0824L25.8351 66.0581L28.7032 65.6135C29.2039 65.5359 29.6445 65.3689 30.0212 65.1096C30.4019 64.8502 30.6882 64.523 30.8759 64.1284C31.07 63.7232 31.1265 63.2751 31.0513 62.7901C30.954 62.1622 30.6494 61.6636 30.1406 61.3045C29.621 60.9379 28.9119 60.8397 28.0409 60.9747L25.1174 61.4278L24.9603 61.4522L24.9846 61.6093L25.6536 65.9253Z" fill="#6865DB" stroke="url(#paint3_linear_503_1341)" stroke-width="0.317944"/>
<path d="M85.7658 76.1384L94.7556 54.2204C95.4932 52.4221 95.4714 50.5015 94.8391 48.8145L93.5936 45.0484L93.4104 44.4944C92.7126 42.6327 91.2714 41.0555 89.2868 40.2415L67.3688 31.2517C63.586 29.7002 59.2616 31.509 57.7101 35.2918L48.7202 57.2098C48.0877 58.7521 48.0137 60.3843 48.4042 61.882L49.829 66.1867L50.1404 67.1276C50.8634 68.9055 52.273 70.4028 54.189 71.1886L76.1071 80.1785C79.8899 81.73 84.2142 79.9212 85.7658 76.1384Z" fill="#7573CE"/>
<rect x="60.5194" y="28.4424" width="38.4963" height="38.4963" rx="4.76916" transform="rotate(22.3013 60.5194 28.4424)" fill="#FBFCFF"/>
<rect x="60.6061" y="28.6498" width="38.1784" height="38.1784" rx="4.61018" transform="rotate(22.3013 60.6061 28.6498)" fill="#FBFCFF" stroke="url(#paint4_linear_503_1341)" stroke-width="0.317944"/>
<path d="M74.1 57.9948L75.8263 58.7092C75.48 59.2342 75.0697 59.6824 74.5954 60.055L74.595 60.0552C74.08 60.4619 73.5086 60.7618 72.8799 60.9552C72.2573 61.146 71.6019 61.2237 70.9124 61.1872C70.2252 61.1508 69.5238 60.9869 68.8077 60.6932C67.6818 60.2314 66.7931 59.5558 66.1361 58.6676C65.481 57.7755 65.103 56.7287 65.0048 55.5224C64.9112 54.3208 65.1467 53.0232 65.7194 51.6269C66.2938 50.2263 67.0394 49.1382 67.9519 48.3548L67.9521 48.3546C68.8692 47.5645 69.8725 47.0867 70.9635 46.9158L70.9641 46.9157C72.0573 46.7405 73.1631 46.8805 74.2844 47.3404C74.9749 47.6237 75.5755 47.9863 76.0877 48.4274L76.0888 48.4283C76.6071 48.8671 77.0254 49.3726 77.3448 49.9449L77.3452 49.9457C77.6657 50.5126 77.8704 51.1302 77.959 51.7998L77.9591 51.8003C78.0417 52.409 78.0133 53.0508 77.8717 53.7268L76.1434 53.0179C76.2224 52.5829 76.226 52.1653 76.152 51.7666C76.0715 51.3328 75.9198 50.9295 75.6969 50.5578C75.4741 50.1865 75.1892 49.8589 74.8431 49.575C74.5016 49.2931 74.1116 49.0627 73.6743 48.8833C72.8829 48.5588 72.088 48.4656 71.2931 48.6079L71.2926 48.608C70.5 48.7524 69.7664 49.1376 69.0924 49.7547L69.0918 49.7552C68.4195 50.3769 67.8625 51.2355 67.4164 52.323C66.9669 53.419 66.7587 54.4258 66.8009 55.3407L66.801 55.3414C66.8475 56.2545 67.1027 57.043 67.5722 57.7001C68.0399 58.3547 68.6675 58.8425 69.4502 59.1635C69.8829 59.341 70.3188 59.452 70.7575 59.4955L70.7586 59.4956C71.2039 59.5365 71.6356 59.5056 72.0529 59.4022C72.4709 59.2986 72.8605 59.1225 73.2208 58.8745C73.5567 58.6448 73.8496 58.3509 74.1 57.9948Z" fill="#6865DB" stroke="url(#paint5_linear_503_1341)" stroke-width="0.317944"/>
<defs>
<linearGradient id="paint0_linear_503_1341" x1="30.3476" y1="8.81134" x2="56.5053" y2="51.7495" gradientUnits="userSpaceOnUse">
<stop stop-color="#B8C8E1"/>
<stop offset="1" stop-color="#F2F7FF" stop-opacity="0"/>
</linearGradient>
<linearGradient id="paint1_linear_503_1341" x1="39.4303" y1="23.7893" x2="36.3438" y2="40.7852" gradientUnits="userSpaceOnUse">
<stop stop-color="#090040" stop-opacity="0"/>
<stop offset="1" stop-color="#090040"/>
</linearGradient>
<linearGradient id="paint2_linear_503_1341" x1="26.332" y1="50.0791" x2="26.332" y2="88.5754" gradientUnits="userSpaceOnUse">
<stop stop-color="#B8C8E1"/>
<stop offset="1" stop-color="#F2F7FF" stop-opacity="0"/>
</linearGradient>
<linearGradient id="paint3_linear_503_1341" x1="28.8133" y1="64.2946" x2="30.6974" y2="81.1506" gradientUnits="userSpaceOnUse">
<stop stop-color="#090040" stop-opacity="0"/>
<stop offset="1" stop-color="#090040"/>
</linearGradient>
<linearGradient id="paint4_linear_503_1341" x1="59.5466" y1="41.8062" x2="79.7676" y2="66.9387" gradientUnits="userSpaceOnUse">
<stop stop-color="#B8C8E1"/>
<stop offset="1" stop-color="#F2F7FF" stop-opacity="0"/>
</linearGradient>
<linearGradient id="paint5_linear_503_1341" x1="73.1094" y1="51.3784" x2="58.217" y2="68.5232" gradientUnits="userSpaceOnUse">
<stop stop-color="#090040" stop-opacity="0"/>
<stop offset="1" stop-color="#090040"/>
</linearGradient>
</defs>
</svg>
