<svg width="55" height="63" viewBox="0 0 55 63" fill="none" xmlns="http://www.w3.org/2000/svg">
<rect opacity="0.8" x="25.6372" y="5.87988" width="6.16" height="3.92" fill="#6967B6"/>
<path d="M22.2771 1.13792C22.2771 0.644347 22.6369 0.230533 23.1285 0.187257C24.0547 0.105738 25.7701 0 28.4371 0C31.1041 0 32.8195 0.105738 33.7457 0.187257C34.2373 0.230533 34.5971 0.644348 34.5971 1.13792V5.01271C34.5971 5.51036 34.2311 5.92754 33.7353 5.97034C32.7873 6.05217 31.0435 6.16 28.4371 6.16C25.8307 6.16 24.0869 6.05217 23.1389 5.97034C22.6431 5.92754 22.2771 5.51035 22.2771 5.0127V1.13792Z" fill="#FFC633"/>
<path d="M22.2769 5.02199C22.2769 5.51557 22.6366 5.92938 23.1283 5.97265C24.0545 6.05417 25.7698 6.15991 28.4369 6.15991C31.1039 6.15991 32.8193 6.05417 33.7454 5.97265C34.2371 5.92938 34.5969 5.51556 34.5969 5.02199V1.14721C34.5969 0.649556 34.2309 0.23237 33.7351 0.189575C32.7871 0.107747 31.0433 -8.7738e-05 28.4369 -8.7738e-05C25.8304 -8.7738e-05 24.0866 0.107747 23.1386 0.189575C22.6428 0.232371 22.2769 0.649557 22.2769 1.14721V5.02199Z" fill="url(#paint0_linear_502_885)"/>
<rect x="49.5862" y="15.7449" width="2.82158" height="3.12212" transform="rotate(50.9771 49.5862 15.7449)" fill="#8785C4"/>
<path d="M50.6597 12.8365C51.0037 12.5696 51.4765 12.5631 51.7919 12.8633C52.1381 13.1927 52.6308 13.7123 53.2252 14.4785C53.8196 15.2446 54.2004 15.851 54.4335 16.2683C54.6458 16.6484 54.522 17.1047 54.178 17.3716L52.6921 18.5243C52.3458 18.793 51.8695 18.7978 51.5534 18.4942C51.209 18.1633 50.7196 17.6439 50.128 16.8813C49.5364 16.1187 49.1549 15.5156 48.92 15.0998C48.7044 14.7181 48.8275 14.258 49.1738 13.9893L50.6597 12.8365Z" fill="#FFC633"/>
<path d="M50.6595 12.8365C51.0034 12.5696 51.4762 12.5631 51.7916 12.8633C52.1378 13.1927 52.6306 13.7123 53.225 14.4785C53.8194 15.2446 54.2002 15.851 54.4332 16.2683C54.6456 16.6484 54.5217 17.1047 54.1778 17.3716L52.6918 18.5243C52.3455 18.793 51.8692 18.7978 51.5531 18.4942C51.2087 18.1633 50.7194 17.6439 50.1277 16.8813C49.5361 16.1187 49.1546 15.5156 48.9197 15.0998C48.7042 14.7181 48.8272 14.258 49.1735 13.9893L50.6595 12.8365Z" fill="url(#paint1_linear_502_885)"/>
<circle cx="27.8771" cy="36.12" r="26.88" fill="#8A89DC"/>
<mask id="mask0_502_885" style="mask-type:alpha" maskUnits="userSpaceOnUse" x="0" y="9" width="55" height="54">
<circle cx="27.8771" cy="36.12" r="26.88" fill="#E9EFF8"/>
</mask>
<g mask="url(#mask0_502_885)">
<circle cx="27.8773" cy="34.9996" r="26.88" fill="#AEACFF"/>
</g>
<path d="M6.59692 37.2398C6.59692 24.8687 16.1243 14.8398 27.8769 14.8398C39.6295 14.8398 49.1569 24.8687 49.1569 37.2398H6.59692Z" fill="#8A88DC"/>
<mask id="mask1_502_885" style="mask-type:alpha" maskUnits="userSpaceOnUse" x="6" y="14" width="44" height="44">
<circle cx="27.8769" cy="36.1198" r="20.78" fill="#D9E1ED" stroke="#738BB0"/>
</mask>
<g mask="url(#mask1_502_885)">
<circle cx="27.8767" cy="37.7998" r="21.28" fill="white"/>
</g>
<path d="M27.9067 14.8398C39.6429 14.8398 49.157 24.2614 49.157 35.8835C49.157 41.6521 46.8131 46.8785 43.017 50.6798C43.017 50.6798 40.7864 43.9724 37.5357 41.1444C34.4596 38.4683 27.9067 37.0362 27.9067 37.0362C27.9067 37.0362 21.4586 35.232 18.2777 32.5954C14.5949 29.5429 11.637 22.3456 11.637 22.3456C15.5351 17.7563 21.377 14.8398 27.9067 14.8398Z" fill="url(#paint2_linear_502_885)" fill-opacity="0.12"/>
<circle cx="27.8769" cy="36.1198" r="20.78" stroke="url(#paint3_linear_502_885)"/>
<rect x="27.8772" y="18.2002" width="1.12" height="2.8" fill="#7270D1"/>
<rect x="27.8772" y="51.8" width="1.12" height="2.8" fill="#7270D1"/>
<rect x="46.637" y="35.8398" width="1.12" height="2.8" transform="rotate(90 46.637 35.8398)" fill="#7270D1"/>
<rect x="13.0371" y="35.8398" width="1.12" height="2.8" transform="rotate(90 13.0371 35.8398)" fill="#7270D1"/>
<rect x="43.9185" y="26.8152" width="1.12" height="2.8" transform="rotate(60 43.9185 26.8152)" fill="#7270D1"/>
<rect x="14.8198" y="43.6152" width="1.12" height="2.8" transform="rotate(60 14.8198 43.6152)" fill="#7270D1"/>
<rect x="37.0535" y="20.3582" width="1.12" height="2.8" transform="rotate(30 37.0535 20.3582)" fill="#7270D1"/>
<rect x="20.2537" y="49.4565" width="1.12" height="2.8" transform="rotate(30 20.2537 49.4565)" fill="#7270D1"/>
<rect x="44.4788" y="45.0149" width="1.12" height="2.8" transform="rotate(120 44.4788 45.0149)" fill="#7270D1"/>
<rect x="15.3804" y="28.2148" width="1.12" height="2.8" transform="rotate(120 15.3804 28.2148)" fill="#7270D1"/>
<rect x="38.022" y="51.8811" width="1.12" height="2.8" transform="rotate(150 38.022 51.8811)" fill="#7270D1"/>
<rect x="21.2222" y="22.783" width="1.12" height="2.8" transform="rotate(150 21.2222 22.783)" fill="#7270D1"/>
<path fill-rule="evenodd" clip-rule="evenodd" d="M28.4372 40.0399C29.9836 40.0399 31.2372 38.7863 31.2372 37.2399C31.2372 35.6935 29.9836 34.4399 28.4372 34.4399C26.8908 34.4399 25.6372 35.6935 25.6372 37.2399C25.6372 38.7863 26.8908 40.0399 28.4372 40.0399ZM28.4372 38.3599C29.0558 38.3599 29.5572 37.8584 29.5572 37.2399C29.5572 36.6213 29.0558 36.1199 28.4372 36.1199C27.8187 36.1199 27.3172 36.6213 27.3172 37.2399C27.3172 37.8584 27.8187 38.3599 28.4372 38.3599Z" fill="#7270D1"/>
<path d="M27.8772 23.24H28.9972L29.2772 34.72H27.5972L27.8772 23.24Z" fill="#7270D1"/>
<defs>
<linearGradient id="paint0_linear_502_885" x1="28.4369" y1="6.15991" x2="28.4369" y2="3.07991" gradientUnits="userSpaceOnUse">
<stop stop-color="#E9B328"/>
<stop offset="1" stop-color="#FFC633" stop-opacity="0"/>
</linearGradient>
<linearGradient id="paint1_linear_502_885" x1="50.5569" y1="16.7998" x2="54.1969" y2="13.7198" gradientUnits="userSpaceOnUse">
<stop stop-color="#EAB325"/>
<stop offset="1" stop-color="#FFC633" stop-opacity="0"/>
</linearGradient>
<linearGradient id="paint2_linear_502_885" x1="33.757" y1="19.5998" x2="25.637" y2="30.7998" gradientUnits="userSpaceOnUse">
<stop stop-color="#1D6AFF"/>
<stop offset="1" stop-color="#A1C1FF"/>
</linearGradient>
<linearGradient id="paint3_linear_502_885" x1="27.8769" y1="46.7598" x2="29.8369" y2="-42.5602" gradientUnits="userSpaceOnUse">
<stop stop-color="#9290E7"/>
<stop offset="1" stop-color="#9290E7" stop-opacity="0"/>
</linearGradient>
</defs>
</svg>
