<svg width="54" height="51" viewBox="0 0 54 51" fill="none" xmlns="http://www.w3.org/2000/svg">
<path d="M53.4145 19.3583C53.214 18.7275 52.6724 18.2716 52.0202 18.175L35.627 15.7993L28.3028 0.969166C28.0124 0.372933 27.4086 0 26.7494 0C26.0903 0 25.4888 0.372939 25.1961 0.969166L17.8695 15.7993L1.47866 18.1727C0.826418 18.2694 0.287158 18.7275 0.0866168 19.356C-0.120804 19.9798 0.0520463 20.6636 0.522202 21.1286L12.3824 32.6713L9.57988 48.9771C9.46926 49.6286 9.73199 50.2848 10.2667 50.6669C10.8014 51.0536 11.5066 51.1089 12.0897 50.805L26.75 43.1071L41.4103 50.805C41.6592 50.9362 41.9381 50.9984 42.2147 50.9984C42.5742 50.9984 42.9291 50.8879 43.2334 50.6669C43.7681 50.287 44.0308 49.6286 43.9202 48.9771L41.1269 32.6713L52.98 21.1286C53.4501 20.6659 53.623 19.9798 53.4156 19.3583H53.4145Z" fill="#FFEDBF"/>
</svg>
