<svg width="83" height="33" viewBox="0 0 83 33" fill="none" xmlns="http://www.w3.org/2000/svg">
<path d="M64.3191 8.74976V28.5553C64.3191 28.5553 69.8577 29.4722 73.3608 30.2775C77.0975 31.1366 82.833 32.8609 82.833 32.8609L77.2358 21.6664L82.833 13.4859C82.833 13.4859 77.0762 11.8495 73.3608 10.9025C69.8435 10.0061 64.3191 8.74976 64.3191 8.74976Z" fill="url(#paint0_linear_503_1569)"/>
<path d="M18.6807 8.75V28.5556C18.6807 28.5556 13.1421 29.4724 9.639 30.2778C5.90224 31.1369 0.166775 32.8611 0.166775 32.8611L5.764 21.6667L0.166775 13.4861C0.166775 13.4861 5.92353 11.8497 9.639 10.9028C13.1563 10.0064 18.6807 8.75 18.6807 8.75Z" fill="url(#paint1_linear_503_1569)"/>
<path d="M71.6388 25.1105L64.3193 28.5549V21.666L71.6388 25.1105Z" fill="#6867AA"/>
<path d="M11.3612 25.1105L18.6807 28.5549V21.666L11.3612 25.1105Z" fill="#6867AA"/>
<path d="M11.3604 3.58312C11.3604 3.58312 24.7076 0.138672 41.4992 0.138672C58.2909 0.138672 71.6381 3.58312 71.6381 3.58312V25.1109C71.6381 25.1109 57.4298 21.6664 41.4992 21.6664C25.5687 21.6664 11.3604 25.1109 11.3604 25.1109V3.58312Z" fill="url(#paint2_linear_503_1569)"/>
<path d="M53.1257 10.7616L55.395 13.1611C55.5149 13.2877 55.5697 13.4626 55.5437 13.6352C55.3578 14.6487 55.181 15.6626 55.0042 16.6761C54.9767 16.8753 55.0548 17.0748 55.2107 17.202C55.3663 17.3294 55.5773 17.3664 55.7668 17.2995L58.5568 16.1463C58.7194 16.0897 58.8989 16.1137 59.0406 16.2114L61.8306 18.0714C61.9762 18.204 62.1908 18.2279 62.3622 18.1305C62.5338 18.0333 62.6231 17.8368 62.5838 17.6437L62.0537 14.4631C62.0225 14.3015 62.0791 14.135 62.2026 14.0257C62.9528 13.4057 63.706 12.7857 64.4625 12.1657C64.5957 12.0174 64.6411 11.8097 64.5818 11.619C64.5228 11.4285 64.3681 11.2829 64.174 11.2357C63.1324 10.9196 62.0909 10.6033 61.0492 10.3057C60.8758 10.2579 60.7326 10.1353 60.6587 9.97118L59.2637 6.96712C59.1953 6.78276 59.0303 6.65167 58.8353 6.62625C58.6401 6.60082 58.4472 6.68558 58.3337 6.84633C57.8593 7.77633 57.4037 8.62279 56.9293 9.50613C56.8524 9.65114 56.7032 9.74347 56.5388 9.74771C55.488 9.74771 54.4463 9.84065 53.4046 9.89666C53.2069 9.91362 53.0389 10.0474 52.9781 10.2363C52.9169 10.4252 52.9753 10.6324 53.1257 10.7616ZM36.0881 9.49684C37.1298 9.30158 38.1806 9.12477 39.2315 8.95737C39.4013 8.93163 39.5475 8.82355 39.6223 8.66916L41.0267 5.87916C41.1154 5.70357 41.2949 5.59277 41.4914 5.59277C41.6882 5.59277 41.868 5.70357 41.9564 5.87916L43.3698 8.66916C43.4443 8.82355 43.5908 8.93163 43.7607 8.95737C44.8115 9.12478 45.8625 9.30158 46.904 9.49684C47.1162 9.51591 47.2963 9.66031 47.3611 9.86314C47.4259 10.066 47.3632 10.2879 47.2016 10.4268L44.9232 12.5472C44.8024 12.6658 44.747 12.8357 44.7743 13.0028L45.3044 16.1182C45.3401 16.3126 45.2586 16.5099 45.0961 16.6222C44.9335 16.7346 44.7204 16.7412 44.5512 16.6392C43.6212 16.137 42.6912 15.6347 41.7612 15.1513C41.611 15.0665 41.4278 15.0665 41.2777 15.1513C40.3477 15.6347 39.4177 16.137 38.4877 16.6392C38.3173 16.7382 38.1047 16.7306 37.9419 16.6195C37.779 16.5081 37.6945 16.3132 37.7251 16.1182C37.911 15.0765 38.0878 14.0441 38.2646 13.0028C38.2921 12.8357 38.2364 12.6658 38.1156 12.5472L35.8373 10.4268C35.678 10.2942 35.6108 10.0811 35.6647 9.8813C35.7186 9.6815 35.8841 9.53135 36.0881 9.49684ZM18.818 11.236C19.8597 10.92 20.9012 10.6036 21.9428 10.306C22.1163 10.2582 22.2595 10.1353 22.3334 9.97119L23.7284 6.96713C23.7968 6.78277 23.9618 6.65168 24.157 6.62626C24.352 6.60083 24.5451 6.68559 24.6584 6.84634C25.1328 7.77634 25.5884 8.6228 26.0628 9.50614C26.1396 9.65115 26.2889 9.74349 26.4533 9.74773C27.495 9.74773 28.5458 9.84066 29.5875 9.89667C29.7867 9.9103 29.958 10.0429 30.0213 10.2324C30.0846 10.4219 30.027 10.6311 29.8757 10.7616L27.6064 13.1611C27.4865 13.2876 27.4317 13.4626 27.4577 13.6351C27.6345 14.6487 27.8204 15.6625 27.9972 16.6761C28.0248 16.8753 27.9467 17.0748 27.7907 17.2019C27.6351 17.3294 27.4241 17.3663 27.2346 17.2994L24.4446 16.1463C24.2821 16.0897 24.1025 16.1136 23.9608 16.2114L21.1708 18.0714C21.0252 18.204 20.8106 18.2279 20.6392 18.1304C20.4676 18.0332 20.3783 17.8368 20.4176 17.6436L20.9477 14.4631C20.9789 14.3014 20.9223 14.1349 20.7988 14.0256C20.0423 13.4056 19.2891 12.7856 18.5389 12.1656C18.4057 12.0185 18.3591 11.8124 18.4163 11.6222C18.4732 11.4318 18.6258 11.2857 18.818 11.236Z" fill="white"/>
<defs>
<linearGradient id="paint0_linear_503_1569" x1="85.4163" y1="8.74976" x2="68.6247" y2="25.972" gradientUnits="userSpaceOnUse">
<stop stop-color="#8987FF"/>
<stop offset="1" stop-color="#A8A6F7"/>
</linearGradient>
<linearGradient id="paint1_linear_503_1569" x1="-2.41656" y1="8.75" x2="14.3751" y2="25.9722" gradientUnits="userSpaceOnUse">
<stop stop-color="#8987FF"/>
<stop offset="1" stop-color="#A8A6F7"/>
</linearGradient>
<linearGradient id="paint2_linear_503_1569" x1="41.4992" y1="0.138672" x2="41.4992" y2="25.1109" gradientUnits="userSpaceOnUse">
<stop stop-color="#918FEA"/>
<stop offset="1" stop-color="#8583FF"/>
</linearGradient>
</defs>
</svg>
